<?xml version="1.0" standalone="no"?>
<!DOCTYPE svg PUBLIC "-//W3C//DTD SVG 20010904//EN"
 "http://www.w3.org/TR/2001/REC-SVG-20010904/DTD/svg10.dtd">
<svg version="1.0" xmlns="http://www.w3.org/2000/svg"
 width="700.000000pt" height="700.000000pt" viewBox="0 0 700.000000 700.000000"
 preserveAspectRatio="xMidYMid meet">
<metadata>
Created by potrace 1.14, written by Peter Selinger 2001-2017
</metadata>
<g transform="translate(0.000000,700.000000) scale(0.100000,-0.100000)"
fill="#000000" stroke="none">
<path d="M4818 6905 c-2 -2 -26 -6 -53 -10 -339 -39 -688 -189 -950 -408 -218
-182 -481 -512 -575 -722 -74 -165 -126 -362 -156 -595 -10 -75 -17 -1010 -7
-1011 4 -1 196 -2 427 -3 272 -1 420 2 422 9 2 5 5 224 7 485 2 261 6 484 9
495 3 11 9 40 13 65 11 68 62 215 94 268 166 280 396 474 657 551 38 11 80 22
94 25 14 2 41 7 60 11 68 12 253 12 338 -2 194 -30 411 -126 545 -241 346
-298 469 -669 362 -1093 -14 -55 -39 -126 -55 -160 -37 -73 -107 -187 -126
-206 -8 -8 -14 -19 -14 -24 0 -18 -186 -197 -250 -240 -146 -98 -303 -154
-487 -175 -32 -4 -807 -8 -1723 -9 -916 -1 -1687 -5 -1715 -9 -581 -72 -1006
-317 -1340 -771 -207 -282 -310 -517 -367 -835 -26 -148 -32 -433 -12 -570 18
-121 19 -126 34 -180 7 -25 13 -52 15 -61 8 -43 63 -185 103 -269 137 -288
355 -541 667 -777 160 -121 495 -264 750 -319 213 -47 563 -48 770 -4 22 5 54
11 71 14 41 8 206 59 272 85 363 144 685 421 951 818 92 138 149 263 200 438
23 77 26 91 46 215 8 47 17 101 21 120 3 19 9 259 11 533 l5 497 -24 1 c-101
3 -830 1 -833 -3 -2 -2 -5 -211 -5 -463 -2 -523 -8 -582 -74 -765 -34 -91
-154 -267 -248 -362 -165 -167 -368 -275 -588 -313 -62 -10 -273 -14 -330 -5
-100 15 -124 21 -212 50 -184 62 -315 144 -456 288 -271 277 -363 618 -268
993 27 109 48 158 112 267 185 312 441 488 789 541 73 11 7 10 1915 14 855 2
1566 6 1579 10 13 3 49 9 80 13 31 3 59 8 62 10 3 2 21 6 40 9 132 23 328 90
464 157 371 187 674 507 895 949 67 133 116 303 155 534 11 66 14 405 4 475
-59 420 -226 755 -532 1063 -171 172 -313 280 -477 365 -203 104 -366 162
-585 208 -116 25 -154 28 -352 30 -121 2 -223 1 -225 -1z"/>
</g>
</svg>
