<?xml version="1.0" encoding="UTF-8" standalone="no"?>
<!-- Created with Inkscape (http://www.inkscape.org/) -->
<!DOCTYPE svg PUBLIC "-//W3C//DTD SVG 1.1//EN" "http://www.w3.org/Graphics/SVG/1.1/DTD/svg11.dtd">
<svg
   xmlns:svg="http://www.w3.org/2000/svg"
   xmlns="http://www.w3.org/2000/svg"
   version="1.1"
   width="400"
   height="400"
   id="svg2856"
   xml:space="preserve"><defs
     id="defs2860" /><g
     transform="matrix(1.25,0,0,-1.25,0,400.00003)"
     id="g2866"><g
       transform="matrix(4.6570768,0,0,4.6570768,-1085.9363,-426.97453)"
       id="g3594"><path
         d="m 236.00863,94.535266 0.993,0 0,3.093 1.117,0 0,0.787 -3.221,0 0,-0.787 1.111,0 0,-3.093 z"
         id="path3262"
         style="fill:#005faf;fill-opacity:1;fill-rule:evenodd;stroke:none" /><path
         d="m 238.37763,94.535266 0.934,0 0,1.533 c 0,0.469 0.134,0.691 0.474,0.691 0.373,0 0.394,-0.254 0.394,-0.783 l 0,-1.441 0.939,0 0,1.97 c 0,0.637 -0.323,0.971 -0.922,0.971 -0.389,0 -0.664,-0.14 -0.88,-0.447 l 0,1.386 -0.939,0 0,-3.88 z"
         id="path3264"
         style="fill:#005faf;fill-opacity:1;fill-rule:evenodd;stroke:none" /><path
         d="m 243.31463,95.436266 c -0.064,-0.205 -0.226,-0.313 -0.48,-0.313 -0.335,0 -0.513,0.216 -0.513,0.621 l 1.938,0 c 0.005,0.054 0.005,0.113 0.005,0.167 0,0.999 -0.561,1.587 -1.462,1.587 -0.875,0 -1.441,-0.583 -1.441,-1.543 0,-0.934 0.556,-1.507 1.441,-1.507 0.734,0 1.246,0.362 1.414,0.988 l -0.902,0 z m -1.02,0.837 c 0.038,0.383 0.232,0.588 0.535,0.588 0.323,0 0.529,-0.216 0.534,-0.588 l -1.069,0 z"
         id="path3266"
         style="fill:#005faf;fill-opacity:1;fill-rule:evenodd;stroke:none" /><path
         d="m 247.02863,98.415266 0,-2.304 c 0,-0.577 0.092,-0.971 0.415,-1.268 0.303,-0.275 0.707,-0.417 1.22,-0.417 0.513,0 0.917,0.142 1.22,0.417 0.324,0.297 0.41,0.691 0.41,1.268 l 0,2.304 -0.988,0 0,-2.423 c 0,-0.512 -0.167,-0.739 -0.647,-0.739 -0.486,0 -0.653,0.227 -0.653,0.739 l 0,2.423 -0.977,0 z"
         id="path3268"
         style="fill:#005faf;fill-opacity:1;fill-rule:evenodd;stroke:none" /><path
         d="m 250.90763,94.535266 0.961,0 0,1.171 c 0,0.313 -0.016,0.745 -0.054,1.285 0.243,-0.464 0.453,-0.848 0.626,-1.144 l 0.761,-1.312 1.074,0 0,3.88 -0.96,0 0,-0.992 c 0,-0.324 0.01,-0.826 0.043,-1.501 -0.189,0.394 -0.405,0.804 -0.643,1.22 l -0.734,1.273 -1.074,0 0,-3.88 z"
         id="path3270"
         style="fill:#005faf;fill-opacity:1;fill-rule:evenodd;stroke:none" /><path
         d="m 257.18463,94.535266 0.988,0 0,1.452 0.664,0 c 0.34,0 0.507,-0.13 0.54,-0.437 0.037,-0.346 -0.011,-0.691 0.107,-1.015 l 1.042,0 0,0.135 c -0.189,0.097 -0.14,0.372 -0.167,0.847 -0.027,0.459 -0.076,0.707 -0.491,0.869 0.415,0.211 0.609,0.513 0.609,0.95 0,0.75 -0.464,1.079 -1.435,1.079 l -1.857,0 0,-3.88 z m 0.988,2.218 0,0.885 0.766,0 c 0.373,0 0.556,-0.134 0.556,-0.421 0,-0.323 -0.183,-0.464 -0.583,-0.464 l -0.739,0 z"
         id="path3272"
         style="fill:#005faf;fill-opacity:1;fill-rule:evenodd;stroke:none" /><path
         d="m 262.76963,95.436266 c -0.064,-0.205 -0.226,-0.313 -0.48,-0.313 -0.334,0 -0.512,0.216 -0.512,0.621 l 1.937,0 c 0.005,0.054 0.005,0.113 0.005,0.167 0,0.999 -0.561,1.587 -1.462,1.587 -0.875,0 -1.441,-0.583 -1.441,-1.543 0,-0.934 0.556,-1.507 1.441,-1.507 0.734,0 1.247,0.362 1.414,0.988 l -0.902,0 z m -1.019,0.837 c 0.037,0.383 0.232,0.588 0.534,0.588 0.324,0 0.529,-0.216 0.534,-0.588 l -1.068,0 z"
         id="path3274"
         style="fill:#005faf;fill-opacity:1;fill-rule:evenodd;stroke:none" /><path
         d="m 264.11863,94.535266 0.939,0 0,2.218 0.464,0 0,0.578 -0.464,0 0,0.081 c 0,0.302 0.06,0.399 0.329,0.399 0.038,0 0.087,0 0.135,-0.005 l 0,0.626 c -0.167,0.011 -0.307,0.016 -0.41,0.016 -0.718,0 -0.998,-0.259 -0.998,-0.928 0,-0.06 0,-0.124 0.005,-0.189 l -0.41,0 0,-0.578 0.41,0 0,-2.218 z"
         id="path3276"
         style="fill:#005faf;fill-opacity:1;fill-rule:evenodd;stroke:none" /><path
         d="m 268.60863,97.401266 -0.939,0 0,-1.533 c 0,-0.469 -0.13,-0.691 -0.47,-0.691 -0.318,0 -0.394,0.195 -0.394,0.621 l 0,1.603 -0.939,0 0,-1.97 c 0,-0.642 0.324,-0.967 0.955,-0.967 0.367,0 0.642,0.147 0.869,0.465 l 0,-0.394 0.918,0 0,2.866 z"
         id="path3278"
         style="fill:#005faf;fill-opacity:1;fill-rule:evenodd;stroke:none" /><path
         d="m 269.95663,95.982266 c 0,0.501 0.2,0.766 0.556,0.766 0.356,0 0.545,-0.259 0.545,-0.766 0,-0.47 -0.21,-0.734 -0.561,-0.734 -0.329,0 -0.54,0.269 -0.54,0.734 z m -0.809,-1.685 c 0.086,-0.626 0.534,-0.912 1.397,-0.912 0.61,0 1.042,0.194 1.263,0.539 0.168,0.259 0.173,0.621 0.173,1.117 l 0,2.36 -0.88,0 0,-0.383 c -0.232,0.318 -0.512,0.458 -0.906,0.458 -0.707,0 -1.209,-0.593 -1.209,-1.5 0,-0.89 0.512,-1.469 1.198,-1.469 0.388,0.006 0.68,0.158 0.885,0.465 l 0,-0.302 c 0,-0.438 -0.119,-0.627 -0.55,-0.627 -0.243,0 -0.384,0.081 -0.432,0.254 l -0.939,0 z"
         id="path3280"
         style="fill:#005faf;fill-opacity:1;fill-rule:evenodd;stroke:none" /><path
         d="m 274.30563,95.436266 c -0.064,-0.205 -0.226,-0.313 -0.48,-0.313 -0.335,0 -0.513,0.216 -0.513,0.621 l 1.938,0 c 0.005,0.054 0.005,0.113 0.005,0.167 0,0.999 -0.561,1.587 -1.462,1.587 -0.875,0 -1.441,-0.583 -1.441,-1.543 0,-0.934 0.556,-1.507 1.441,-1.507 0.734,0 1.246,0.362 1.414,0.988 l -0.902,0 z m -1.02,0.837 c 0.038,0.383 0.232,0.588 0.535,0.588 0.323,0 0.529,-0.216 0.534,-0.588 l -1.069,0 z"
         id="path3282"
         style="fill:#005faf;fill-opacity:1;fill-rule:evenodd;stroke:none" /><path
         d="m 277.40863,95.436266 c -0.065,-0.205 -0.227,-0.313 -0.481,-0.313 -0.334,0 -0.512,0.216 -0.512,0.621 l 1.937,0 c 0.006,0.054 0.006,0.113 0.006,0.167 0,0.999 -0.562,1.587 -1.463,1.587 -0.874,0 -1.441,-0.583 -1.441,-1.543 0,-0.934 0.556,-1.507 1.441,-1.507 0.734,0 1.247,0.362 1.414,0.988 l -0.901,0 z m -1.02,0.837 c 0.038,0.383 0.232,0.588 0.534,0.588 0.324,0 0.529,-0.216 0.535,-0.588 l -1.069,0 z"
         id="path3284"
         style="fill:#005faf;fill-opacity:1;fill-rule:evenodd;stroke:none" /><path
         d="m 282.05563,98.415266 -1.398,-3.88 1.031,0 0.221,0.713 1.296,0 0.237,-0.713 1.069,0 -1.371,3.88 -1.085,0 z m 0.092,-2.363 0.415,1.338 0.432,-1.338 -0.847,0 z"
         id="path3286"
         style="fill:#005faf;fill-opacity:1;fill-rule:evenodd;stroke:none" /><path
         d="m 285.53563,95.982266 c 0,0.501 0.2,0.766 0.556,0.766 0.356,0 0.545,-0.259 0.545,-0.766 0,-0.47 -0.21,-0.734 -0.561,-0.734 -0.329,0 -0.54,0.269 -0.54,0.734 z m -0.809,-1.685 c 0.086,-0.626 0.534,-0.912 1.398,-0.912 0.61,0 1.041,0.194 1.262,0.539 0.168,0.259 0.173,0.621 0.173,1.117 l 0,2.36 -0.88,0 0,-0.383 c -0.232,0.318 -0.512,0.458 -0.906,0.458 -0.707,0 -1.209,-0.593 -1.209,-1.5 0,-0.89 0.513,-1.469 1.198,-1.469 0.389,0.006 0.68,0.158 0.885,0.465 l 0,-0.302 c 0,-0.438 -0.119,-0.627 -0.55,-0.627 -0.243,0 -0.384,0.081 -0.432,0.254 l -0.939,0 z"
         id="path3288"
         style="fill:#005faf;fill-opacity:1;fill-rule:evenodd;stroke:none" /><path
         d="m 289.88563,95.436266 c -0.065,-0.205 -0.227,-0.313 -0.481,-0.313 -0.334,0 -0.512,0.216 -0.512,0.621 l 1.937,0 c 0.005,0.054 0.005,0.113 0.005,0.167 0,0.999 -0.561,1.587 -1.462,1.587 -0.875,0 -1.441,-0.583 -1.441,-1.543 0,-0.934 0.556,-1.507 1.441,-1.507 0.734,0 1.246,0.362 1.414,0.988 l -0.901,0 z m -1.021,0.837 c 0.038,0.383 0.233,0.588 0.535,0.588 0.324,0 0.529,-0.216 0.534,-0.588 l -1.069,0 z"
         id="path3290"
         style="fill:#005faf;fill-opacity:1;fill-rule:evenodd;stroke:none" /><path
         d="m 291.19563,94.535266 0.934,0 0,1.533 c 0,0.469 0.135,0.691 0.475,0.691 0.372,0 0.394,-0.254 0.394,-0.783 l 0,-1.441 0.939,0 0,1.862 c 0,0.734 -0.259,1.074 -0.955,1.074 -0.394,0 -0.675,-0.151 -0.869,-0.464 l 0,0.394 -0.918,0 0,-2.866 z"
         id="path3292"
         style="fill:#005faf;fill-opacity:1;fill-rule:evenodd;stroke:none" /><path
         d="m 297.10463,95.598266 -0.923,0 c -0.054,-0.28 -0.199,-0.415 -0.442,-0.415 -0.329,0 -0.486,0.259 -0.486,0.782 0,0.54 0.173,0.821 0.497,0.821 0.221,0 0.361,-0.135 0.415,-0.4 l 0.945,0 c -0.06,0.697 -0.567,1.118 -1.355,1.118 -0.896,0 -1.468,-0.589 -1.468,-1.566 0,-0.896 0.561,-1.495 1.419,-1.495 0.788,0 1.307,0.427 1.398,1.155 z"
         id="path3294"
         style="fill:#005faf;fill-opacity:1;fill-rule:evenodd;stroke:none" /><path
         d="m 299.03063,94.216266 1.144,3.185 -0.998,0 -0.55,-1.954 -0.54,1.954 -1.01,0 0.967,-2.537 c 0.081,-0.205 0.14,-0.351 0.14,-0.465 0,-0.237 -0.146,-0.291 -0.453,-0.291 l -0.184,0 0,-0.745 0.248,0 c 0.319,0 0.567,0 0.751,0.081 0.221,0.097 0.334,0.356 0.485,0.772 z"
         id="path3296"
         style="fill:#005faf;fill-opacity:1;fill-rule:evenodd;stroke:none" /><path
         d="m 259.36163,150.26327 c -0.985,-1.049 -2.573,-3.559 -1.557,-5.656 2.129,-0.794 1.97,6.705 4.608,6.578 1.271,-1.208 -0.413,-4.735 -0.922,-6.292 -0.667,-1.938 -1.175,-5.941 -2.415,-7.911 -1.016,-1.621 -0.254,-6.705 -0.571,-8.484 -0.89,-0.858 -3.241,-0.254 -4.258,-0.095 0,2.033 -0.254,3.622 -0.572,6.831 -0.064,0.636 -0.731,10.581 -0.191,11.788 1.144,2.51 7.34,7.276 8.198,8.198 0.762,0.794 3.368,3.495 4.385,3.495 0.73,-0.477 0.286,-1.621 0.127,-2.065 -1.017,-2.51 -5.37,-4.989 -6.832,-6.387 z"
         id="path3298"
         style="fill:#005faf;fill-opacity:1;fill-rule:evenodd;stroke:none" /><path
         d="m 274.51863,150.26327 c 0.984,-1.049 2.573,-3.559 1.556,-5.656 -2.128,-0.794 -1.97,6.705 -4.607,6.578 -1.271,-1.208 0.413,-4.735 0.922,-6.292 0.667,-1.938 1.175,-5.941 2.415,-7.911 1.016,-1.621 0.254,-6.705 0.571,-8.484 0.89,-0.858 3.241,-0.254 4.258,-0.095 0,2.033 0.254,3.622 0.572,6.831 0.064,0.636 0.731,10.581 0.191,11.788 -1.144,2.51 -7.34,7.276 -8.198,8.198 -0.763,0.794 -3.368,3.495 -4.385,3.495 -0.731,-0.477 -0.286,-1.621 -0.127,-2.065 1.017,-2.51 5.37,-4.989 6.832,-6.387 z"
         id="path3300"
         style="fill:#005faf;fill-opacity:1;fill-rule:evenodd;stroke:none" /><path
         d="m 283.41463,153.66327 c 0.54,-0.54 1.779,-0.89 2.606,-2.034 0.349,0.636 -0.509,2.129 -1.526,2.987 -0.73,0.636 -2.192,1.621 -2.637,1.748 -0.318,-0.763 0.858,-1.907 1.557,-2.701 z"
         id="path3302"
         style="fill:#005faf;fill-opacity:1;fill-rule:evenodd;stroke:none" /><path
         d="m 285.13063,149.59627 c 0.921,-0.89 1.938,-1.239 3.241,-2.828 0.54,1.906 0.413,3.59 0.159,4.734 -0.445,1.494 -1.208,3.146 -2.479,3.686 0.286,-0.858 0.699,-2.033 0.795,-3.622 0.54,-2.161 0.858,-2.224 0.73,-2.542 -0.127,0 -0.826,1.144 -1.715,2.033 -1.017,1.049 -2.32,1.271 -3.178,1.875 0.127,-0.413 0.89,-1.747 2.447,-3.336 z"
         id="path3304"
         style="fill:#005faf;fill-opacity:1;fill-rule:evenodd;stroke:none" /><path
         d="m 289.70563,140.60427 c 1.271,2.256 1.398,3.908 1.494,5.846 -0.064,1.335 -0.731,4.417 -1.684,4.862 0.286,-2.796 -0.477,-3.051 -0.159,-5.37 0,-0.127 0.318,-2.51 0.318,-2.637 -0.382,0.063 -0.032,2.192 -4.481,5.274 0.954,-1.684 0.509,-2.192 2.256,-4.448 2.066,-2.002 2.352,-4.004 2.256,-3.527 z"
         id="path3306"
         style="fill:#005faf;fill-opacity:1;fill-rule:evenodd;stroke:none" /><path
         d="m 287.92663,138.44327 c 0.921,-1.366 0.763,-2.033 0.985,-2.7 2.256,1.302 4.798,6.481 3.845,9.055 -0.572,-1.97 -1.398,-2.383 -1.97,-4.004 -1.017,-2.446 -0.858,-3.177 -1.494,-3.749 0.127,1.271 -0.318,2.765 -0.731,3.877 -0.603,0.953 -1.112,2.16 -1.556,2.605 -0.477,-1.811 -0.128,-3.273 0.921,-5.084 z"
         id="path3308"
         style="fill:#005faf;fill-opacity:1;fill-rule:evenodd;stroke:none" /><path
         d="m 285.89263,134.02727 c 0,-1.97 0.382,-2.86 0.541,-4.322 3.844,1.271 5.878,5.688 5.878,7.88 -1.176,-2.669 -2.892,-2.637 -5.148,-6.418 -0.19,1.43 0.382,0.35 0.445,3.05 -0.063,2.828 -0.635,2.924 -0.731,4.671 -0.73,-0.762 -0.985,-3.876 -0.985,-4.861 z"
         id="path3310"
         style="fill:#005faf;fill-opacity:1;fill-rule:evenodd;stroke:none" /><path
         d="m 282.68363,128.40327 c -0.286,-1.462 -0.413,-3.178 -0.635,-4.449 2.192,0.827 2.732,0.191 5.37,1.843 1.207,0.667 3.368,3.4 3.241,5.338 -2.606,-2.891 -3.083,-2.573 -4.322,-3.622 -1.175,-0.953 -2.129,-2.351 -2.986,-2.161 -0.064,0.795 1.938,2.479 1.684,7.34 -0.541,-0.54 -1.97,-2.764 -2.352,-4.289 z"
         id="path3312"
         style="fill:#005faf;fill-opacity:1;fill-rule:evenodd;stroke:none" /><path
         d="m 278.29963,124.78127 c -0.668,-0.985 -0.509,-1.399 -2.288,-3.432 0.445,-0.191 2.923,-0.826 4.607,-0.89 1.08,0 4.988,1.017 6.291,3.686 -2.256,-1.207 -2.287,-0.89 -5.274,-1.557 -2.129,-0.476 -3.654,-1.176 -4.258,-1.112 0.127,0.318 1.811,0.985 2.923,2.415 1.144,1.525 0.89,3.241 1.907,4.512 -0.699,0.19 -3.368,-2.923 -3.908,-3.622 z"
         id="path3314"
         style="fill:#005faf;fill-opacity:1;fill-rule:evenodd;stroke:none" /><path
         d="m 261.39563,115.59827 -0.636,0.349 c 0,0 4.099,5.021 11.185,4.639 7.085,-0.381 6.609,-2.065 10.422,-1.779 0.413,0.032 -0.35,-0.54 -0.35,-0.54 0,0 -3.686,-1.43 -8.261,0.127 -4.575,1.557 -7.53,2.51 -12.36,-2.796 z"
         id="path3316"
         style="fill:#005faf;fill-opacity:1;fill-rule:evenodd;stroke:none" /><path
         d="m 250.46563,153.66327 c -0.54,-0.54 -1.78,-0.89 -2.606,-2.034 -0.349,0.636 0.509,2.129 1.526,2.987 0.73,0.636 2.192,1.621 2.637,1.748 0.317,-0.763 -0.858,-1.907 -1.557,-2.701 z"
         id="path3318"
         style="fill:#005faf;fill-opacity:1;fill-rule:evenodd;stroke:none" /><path
         d="m 248.74963,149.59627 c -0.921,-0.89 -1.938,-1.239 -3.241,-2.828 -0.54,1.906 -0.413,3.59 -0.159,4.734 0.445,1.494 1.208,3.146 2.479,3.686 -0.286,-0.858 -0.699,-2.033 -0.795,-3.622 -0.54,-2.161 -0.858,-2.224 -0.731,-2.542 0.128,0 0.827,1.144 1.716,2.033 1.017,1.049 2.32,1.271 3.178,1.875 -0.127,-0.413 -0.89,-1.747 -2.447,-3.336 z"
         id="path3320"
         style="fill:#005faf;fill-opacity:1;fill-rule:evenodd;stroke:none" /><path
         d="m 244.17463,140.60427 c -1.271,2.256 -1.398,3.908 -1.494,5.846 0.064,1.335 0.731,4.417 1.684,4.862 -0.286,-2.796 0.477,-3.051 0.159,-5.37 0,-0.127 -0.318,-2.51 -0.318,-2.637 0.382,0.063 0.032,2.192 4.48,5.274 -0.953,-1.684 -0.508,-2.192 -2.255,-4.448 -2.066,-2.002 -2.352,-4.004 -2.256,-3.527 z"
         id="path3322"
         style="fill:#005faf;fill-opacity:1;fill-rule:evenodd;stroke:none" /><path
         d="m 245.95363,138.44327 c -0.922,-1.366 -0.763,-2.033 -0.985,-2.7 -2.256,1.302 -4.798,6.481 -3.845,9.055 0.572,-1.97 1.398,-2.383 1.97,-4.004 1.017,-2.446 0.858,-3.177 1.494,-3.749 -0.127,1.271 0.317,2.765 0.73,3.877 0.604,0.953 1.113,2.16 1.557,2.605 0.477,-1.811 0.127,-3.273 -0.921,-5.084 z"
         id="path3324"
         style="fill:#005faf;fill-opacity:1;fill-rule:evenodd;stroke:none" /><path
         d="m 247.98663,134.02727 c 0,-1.97 -0.381,-2.86 -0.54,-4.322 -3.844,1.271 -5.878,5.688 -5.878,7.88 1.176,-2.669 2.892,-2.637 5.147,-6.418 0.191,1.43 -0.381,0.35 -0.444,3.05 0.063,2.828 0.635,2.924 0.73,4.671 0.731,-0.762 0.985,-3.876 0.985,-4.861 z"
         id="path3326"
         style="fill:#005faf;fill-opacity:1;fill-rule:evenodd;stroke:none" /><path
         d="m 251.19663,128.40327 c 0.286,-1.462 0.413,-3.178 0.635,-4.449 -2.192,0.827 -2.732,0.191 -5.37,1.843 -1.207,0.667 -3.368,3.4 -3.241,5.338 2.606,-2.891 3.082,-2.573 4.322,-3.622 1.175,-0.953 2.128,-2.351 2.986,-2.161 0.064,0.795 -1.938,2.479 -1.684,7.34 0.541,-0.54 1.97,-2.764 2.352,-4.289 z"
         id="path3328"
         style="fill:#005faf;fill-opacity:1;fill-rule:evenodd;stroke:none" /><path
         d="m 255.58063,124.78127 c 0.668,-0.985 0.509,-1.399 2.288,-3.432 -0.445,-0.191 -2.923,-0.826 -4.607,-0.89 -1.08,0 -4.989,1.017 -6.291,3.686 2.256,-1.207 2.287,-0.89 5.274,-1.557 2.129,-0.476 3.654,-1.176 4.258,-1.112 -0.127,0.318 -1.811,0.985 -2.923,2.415 -1.144,1.525 -0.89,3.241 -1.907,4.512 0.699,0.19 3.368,-2.923 3.908,-3.622 z"
         id="path3330"
         style="fill:#005faf;fill-opacity:1;fill-rule:evenodd;stroke:none" /><path
         d="m 272.61163,115.59827 0.636,0.349 c 0,0 -4.099,5.021 -11.185,4.639 -7.085,-0.381 -6.609,-2.065 -10.422,-1.779 -0.413,0.032 0.35,-0.54 0.35,-0.54 0,0 3.686,-1.43 8.261,0.127 4.575,1.557 7.53,2.51 12.36,-2.796 z"
         id="path3332"
         style="fill:#005faf;fill-opacity:1;fill-rule:evenodd;stroke:none" /><path
         d="m 264.67363,132.37627 c -1.493,0 -1.415,0.59 -1.415,1.162 l 0,10.101 c 0,2.764 1.926,2.27 2.496,3.288 0.442,0.789 -0.325,1.47 -0.728,2.317 -0.294,0.618 -0.303,1.344 -0.001,2.004 0.3,0.659 1.144,1.118 1.914,1.118 0.771,0 1.615,-0.459 1.915,-1.118 0.301,-0.66 0.293,-1.386 -10e-4,-2.004 -0.403,-0.847 -1.17,-1.528 -0.728,-2.317 0.57,-1.018 2.496,-0.524 2.496,-3.288 l 0,-10.101 c 0,-0.572 0.078,-1.162 -1.416,-1.162 -0.179,0.013 -0.347,-0.169 -0.347,-0.482 l 0,-3.807 -3.837,0 0,3.819 c 0,0 0.038,0.47 -0.348,0.47 z"
         id="path3334"
         style="fill:#005faf;fill-opacity:1;fill-rule:evenodd;stroke:none" /><path
         d="m 234.99063,112.88927 0,-7.962 c 0,-3.109 2.072,-4.804 5.906,-4.804 3.834,0 5.872,1.695 5.872,4.804 l 0,7.962 -3.989,0 0,-7.651 c 0,-1.364 -0.449,-1.969 -1.883,-1.969 -1.433,0 -1.917,0.605 -1.917,1.969 l 0,7.651 -3.989,0 z"
         id="path3336"
         style="fill:#005faf;fill-opacity:1;fill-rule:evenodd;stroke:none" /><path
         d="m 248.58163,100.47127 3.783,0 0,5.82 c 0,0.501 0,1.071 -0.104,1.693 0.276,-0.864 0.535,-1.468 0.725,-1.779 l 3.489,-5.734 3.799,0 0,12.418 -3.799,0 0,-5.855 c 0,-0.587 0.017,-1.157 0.103,-1.692 -0.276,0.863 -0.518,1.45 -0.725,1.778 l -3.488,5.769 -3.783,0 0,-12.418 z"
         id="path3338"
         style="fill:#005faf;fill-opacity:1;fill-rule:evenodd;stroke:none" /><path
         d="m 261.77663,100.47127 3.989,0 0,4.819 3.713,0 0,-4.819 3.99,0 0,12.418 -3.99,0 0,-4.214 -3.713,0 0,4.214 -3.989,0 0,-12.418 z"
         id="path3340"
         style="fill:#005faf;fill-opacity:1;fill-rule:evenodd;stroke:none" /><path
         d="m 283.51963,105.29027 c -0.121,-1.33 -0.881,-2.055 -2.107,-2.055 -1.606,0 -2.453,1.174 -2.453,3.436 0,2.297 0.778,3.437 2.349,3.437 1.278,0 1.986,-0.656 2.107,-1.917 l 3.817,0 c -0.242,3.212 -2.366,5.026 -5.976,5.026 -3.885,0 -6.32,-2.487 -6.32,-6.546 0,-4.041 2.417,-6.548 6.407,-6.548 3.575,0 5.733,1.903 5.958,5.167 l -3.782,0 z"
         id="path3342"
         style="fill:#005faf;fill-opacity:1;fill-rule:evenodd;stroke:none" /><path
         d="m 288.45863,100.47127 3.938,0 0,4.283 1.692,0 c 1.226,0 1.693,-0.449 1.693,-1.744 l 0,-1.243 c 0,-0.225 0.069,-0.657 0.224,-1.296 l 4.024,0 0,0.467 c -0.345,0.034 -0.345,0.276 -0.363,0.811 l -0.069,1.727 c -0.051,1.693 -0.639,2.47 -2.02,2.764 1.364,0.587 2.003,1.554 2.003,3.074 0,2.659 -1.623,3.575 -5.181,3.575 l -5.941,0 0,-12.418 z m 3.938,7.081 0,2.332 1.709,0 c 1.209,0 1.779,-0.173 1.779,-1.175 0,-0.932 -0.535,-1.157 -1.675,-1.157 l -1.813,0 z"
         id="path3344"
         style="fill:#005faf;fill-opacity:1;fill-rule:evenodd;stroke:none" /></g></g></svg>