<?xml version="1.0" encoding="UTF-8"?>
<svg xmlns="http://www.w3.org/2000/svg" xmlns:xlink="http://www.w3.org/1999/xlink" width="40px" height="40px" viewBox="0 0 40 39" version="1.1">
<g id="surface1">
<path style=" stroke:none;fill-rule:evenodd;fill:rgb(20%,21.176471%,32.156864%);fill-opacity:1;" d="M 11.320312 17.121094 C 6.445312 17.121094 2.910156 19.484375 0.714844 24.21875 C 0.234375 25.636719 0 26.96875 0 28.222656 C 0 31.789062 1.699219 34.78125 5.09375 37.214844 C 7.140625 38.417969 9.179688 39.015625 11.226562 39.015625 C 15.527344 39.015625 18.890625 36.949219 21.328125 32.820312 C 22.078125 31.300781 22.453125 29.535156 22.453125 27.523438 L 22.453125 23.261719 L 17.554688 23.261719 L 17.554688 27.761719 C 17.554688 28.894531 17.34375 29.890625 16.921875 30.746094 C 15.546875 33.078125 13.652344 34.242188 11.226562 34.242188 C 10.070312 34.242188 8.921875 33.90625 7.769531 33.226562 C 5.855469 31.855469 4.894531 30.164062 4.894531 28.15625 C 4.894531 27.449219 5.027344 26.695312 5.300781 25.898438 C 6.441406 23.433594 8.226562 22.109375 10.660156 21.917969 L 10.660156 21.894531 L 28.6875 21.894531 C 33.5625 21.894531 37.097656 19.53125 39.292969 14.796875 C 39.773438 13.378906 40.007812 12.046875 40.007812 10.792969 C 40.007812 7.226562 38.308594 4.230469 34.914062 1.800781 C 32.867188 0.597656 30.828125 0 28.78125 0 C 24.480469 0 21.117188 2.066406 18.679688 6.195312 C 17.929688 7.714844 17.554688 9.480469 17.554688 11.492188 L 17.554688 15.753906 L 22.453125 15.753906 L 22.453125 11.253906 C 22.453125 10.121094 22.664062 9.125 23.085938 8.265625 C 24.460938 5.9375 26.355469 4.773438 28.78125 4.773438 C 29.9375 4.773438 31.085938 5.109375 32.238281 5.789062 C 34.152344 7.160156 35.113281 8.847656 35.113281 10.859375 C 35.113281 11.566406 34.980469 12.320312 34.707031 13.117188 C 33.558594 15.601562 31.753906 16.925781 29.296875 17.101562 L 29.296875 17.121094 L 11.320312 17.121094 "/>
</g>
</svg>
