<?xml version="1.0" encoding="UTF-8" standalone="no"?><svg xmlns="http://www.w3.org/2000/svg" xmlns:xlink="http://www.w3.org/1999/xlink" fill="#000000" height="1019.4" preserveAspectRatio="xMidYMid meet" version="1" viewBox="487.9 490.3 1024.2 1019.4" width="1024.2" zoomAndPan="magnify"><g id="change1_1"><path d="M 777.746094 937.628906 C 652.894531 937.628906 562.371094 999.371094 506.1875 1123.121094 C 493.925781 1160.121094 487.910156 1194.910156 487.910156 1227.679688 C 487.910156 1320.871094 531.390625 1399.121094 618.335938 1462.660156 C 670.726562 1494.101562 722.890625 1509.710938 775.292969 1509.710938 C 885.421875 1509.710938 971.484375 1455.75 1033.910156 1347.839844 C 1053.089844 1308.160156 1062.671875 1262.011719 1062.671875 1209.390625 L 1062.671875 1098.050781 L 937.332031 1098.050781 L 937.332031 1215.621094 C 937.332031 1245.289062 931.921875 1271.308594 921.117188 1293.679688 C 885.914062 1354.53125 837.390625 1384.960938 775.292969 1384.960938 C 745.742188 1384.960938 716.332031 1376.160156 686.792969 1358.421875 C 637.765625 1322.601562 613.242188 1278.480469 613.242188 1225.921875 C 613.242188 1207.449219 616.644531 1187.839844 623.558594 1166.96875 C 652.792969 1102.558594 698.535156 1067.941406 760.757812 1063 L 760.757812 1062.371094 L 1222.269531 1062.371094 C 1347.101562 1062.371094 1437.628906 1000.628906 1493.808594 876.878906 C 1506.070312 839.878906 1512.089844 805.089844 1512.089844 772.320312 C 1512.089844 679.128906 1468.621094 600.878906 1381.660156 537.339844 C 1329.269531 505.898438 1277.109375 490.289062 1224.71875 490.289062 C 1114.578125 490.289062 1028.511719 544.25 966.085938 652.160156 C 946.925781 691.839844 937.332031 737.988281 937.332031 790.609375 L 937.332031 901.949219 L 1062.671875 901.949219 L 1062.671875 784.378906 C 1062.671875 754.710938 1068.078125 728.691406 1078.878906 706.308594 C 1114.078125 645.46875 1162.609375 615.039062 1224.71875 615.039062 C 1254.261719 615.039062 1283.671875 623.839844 1313.21875 641.578125 C 1362.230469 677.398438 1386.761719 721.519531 1386.761719 774.070312 C 1386.761719 792.550781 1383.351562 812.160156 1376.441406 833.03125 C 1346.988281 897.890625 1300.820312 932.539062 1237.898438 937.101562 L 1237.898438 937.628906 L 777.746094 937.628906" fill="#333652" fill-rule="evenodd"/></g></svg>